HIERARCHY
ROOT Hips
{
	OFFSET 0.000000 0.000000 0.000000
	CHANNELS 6 Xposition Yposition Zposition Zrotation Yrotation Xrotation 
	JOINT LHipJoint
	{
		OFFSET 0.000000 0.000000 0.000000
		CHANNELS 3 Zrotation Yrotation Xrotation
		JOINT LeftUpLeg
		{
			OFFSET 1.363060 -1.794630 0.839290
			CHANNELS 3 Zrotation Yrotation Xrotation
			JOINT LeftLeg
			{
				OFFSET 2.448110 -6.726130 0.000000
				CHANNELS 3 Zrotation Yrotation Xrotation
				JOINT LeftFoot
				{
					OFFSET 2.562200 -7.039590 0.000000
					CHANNELS 3 Zrotation Yrotation Xrotation
					JOINT LeftToeBase
					{
						OFFSET 0.157640 -0.433110 2.322550
						CHANNELS 3 Zrotation Yrotation Xrotation
						End Site
						{
							OFFSET 0.000000 0.000000 0.000000
						}
					}
				}
			}
		}
	}
	JOINT RHipJoint
	{
		OFFSET 0.000000 0.000000 0.000000
		CHANNELS 3 Zrotation Yrotation Xrotation
		JOINT RightUpLeg
		{
			OFFSET -1.305520 -1.794630 0.839290
			CHANNELS 3 Zrotation Yrotation Xrotation
			JOINT RightLeg
			{
				OFFSET -2.542530 -6.985550 0.000000
				CHANNELS 3 Zrotation Yrotation Xrotation
				JOINT RightFoot
				{
					OFFSET -2.568260 -7.056230 0.000000
					CHANNELS 3 Zrotation Yrotation Xrotation
					JOINT RightToeBase
					{
						OFFSET -0.164730 -0.452590 2.363150
						CHANNELS 3 Zrotation Yrotation Xrotation
						End Site
						{
							OFFSET 0.000000 0.000000 0.000000
						}
					}
				}
			}
		}
	}
	JOINT LowerBack
	{
		OFFSET 0.000000 0.000000 0.000000
		CHANNELS 3 Zrotation Yrotation Xrotation
		JOINT Spine
		{
			OFFSET 0.028270 2.035590 -0.193380
			CHANNELS 3 Zrotation Yrotation Xrotation
			JOINT Spine1
			{
				OFFSET 0.056720 2.048850 -0.042750
				CHANNELS 3 Zrotation Yrotation Xrotation
				JOINT Neck
				{
					OFFSET 0.000000 0.000000 0.000000
					CHANNELS 3 Zrotation Yrotation Xrotation
					JOINT Neck1
					{
						OFFSET -0.054170 1.746240 0.172020
						CHANNELS 3 Zrotation Yrotation Xrotation
						JOINT Head
						{
							OFFSET 0.104070 1.761360 -0.123970
							CHANNELS 3 Zrotation Yrotation Xrotation
							End Site
							{
								OFFSET 0.000000 0.000000 0.000000
							}
						}
					}
				}
				JOINT LeftShoulder
				{
					OFFSET 0.000000 0.000000 0.000000
					CHANNELS 3 Zrotation Yrotation Xrotation
					JOINT LeftArm
					{
						OFFSET 3.362410 1.200890 -0.311210
						CHANNELS 3 Zrotation Yrotation Xrotation
						JOINT LeftForeArm
						{
							OFFSET 4.983000 -0.000000 -0.000000
							CHANNELS 3 Zrotation Yrotation Xrotation
							JOINT LeftHand
							{
								OFFSET 3.483560 -0.000000 -0.000000
								CHANNELS 3 Zrotation Yrotation Xrotation
								JOINT LeftFingerBase
								{
									OFFSET 0.000000 0.000000 0.000000
									CHANNELS 3 Zrotation Yrotation Xrotation
									JOINT LeftHandIndex1
									{
										OFFSET 0.715260 -0.000000 -0.000000
										CHANNELS 3 Zrotation Yrotation Xrotation
										End Site
										{
											OFFSET 0.000000 0.000000 0.000000
										}
									}
								}
								JOINT LThumb
								{
									OFFSET 0.000000 0.000000 0.000000
									CHANNELS 3 Zrotation Yrotation Xrotation
									End Site
									{
										OFFSET 0.000000 0.000000 0.000000
									}
								}
							}
						}
					}
				}
				JOINT RightShoulder
				{
					OFFSET 0.000000 0.000000 0.000000
					CHANNELS 3 Zrotation Yrotation Xrotation
					JOINT RightArm
					{
						OFFSET -3.136600 1.374050 -0.404650
						CHANNELS 3 Zrotation Yrotation Xrotation
						JOINT RightForeArm
						{
							OFFSET -5.241900 -0.000000 -0.000000
							CHANNELS 3 Zrotation Yrotation Xrotation
							JOINT RightHand
							{
								OFFSET -3.444170 -0.000000 -0.000000
								CHANNELS 3 Zrotation Yrotation Xrotation
								JOINT RightFingerBase
								{
									OFFSET 0.000000 0.000000 0.000000
									CHANNELS 3 Zrotation Yrotation Xrotation
									JOINT RightHandIndex1
									{
										OFFSET -0.622530 -0.000000 -0.000000
										CHANNELS 3 Zrotation Yrotation Xrotation
										End Site
										{
											OFFSET 0.000000 0.000000 0.000000
										}
									}
								}
								JOINT RThumb
								{
									OFFSET 0.000000 0.000000 0.000000
									CHANNELS 3 Zrotation Yrotation Xrotation
									End Site
									{
										OFFSET 0.000000 0.000000 0.000000
									}
								}
							}
						}
					}
				}
			}
		}
	}
}
MOTION
Frames: 8
Frame Time: 0.008333
3.938407 16.966585 3.291547 2.621388 16.622230 13.230073 -11.982950 4.732379 -1.450564 -4.812324 19.071446 -0.672949 -0.621756 1.344916 23.451096 1.738872 12.753896 15.804825 4.558699 0.000000 -83.441800 7.564213 -1.022342 4.017970 16.965390 1.979271 -26.100213 2.906296 3.086463 -6.746738 -3.115142 -14.218164 -4.499975 -2.337200 -0.000001 -29.343701 5.010958 -3.567000 -2.631390 0.423374 -4.062248 -3.061363 -6.525766 -4.108820 1.792933 8.254738 -8.474832 -7.386487 -3.978018 -0.302000 0.051769 0.000000 0.000000 0.000000 -5.603855 5.583654 2.271216 -41.593751 -11.253793 3.704772 -2.759753 -46.624637 -0.009964 6.488540 0.311511 0.013436 -0.163386 0.105580 -0.000000 0.000000 0.000000 0.000000 0.000000 0.000000 0.000000 16.885837 -8.354048 1.128515 49.953866 -0.157693 -27.273537 3.964008 5.944618 0.006664 -4.795343 5.095043 -0.223231 0.146457 -0.080229 0.000000 0.000000 0.000000 0.000000 0.000000 0.000000 0.000000 
3.990420 16.982058 3.434981 2.102770 16.217114 13.027007 -12.237417 4.675636 -1.377794 -4.030613 18.933202 -1.306840 -0.439665 1.437548 25.211642 1.827533 12.694854 17.731064 4.809400 -0.000000 -83.571900 7.341959 -1.141468 4.036283 17.559486 2.314131 -25.405461 3.011170 3.081582 -6.725418 -3.052166 -14.199013 -3.965598 -2.487401 0.000000 -30.040800 5.632633 -3.481077 -2.742708 0.552385 -4.026517 -3.099852 -6.496608 -4.073271 1.764759 8.169959 -8.414794 -7.335898 -3.993465 -0.304093 0.067707 0.000000 0.000000 0.000000 -5.799056 5.774064 2.161166 -42.877242 -11.022545 4.078262 -2.731592 -47.273495 -0.009112 6.159661 0.201660 0.006656 -0.160355 0.106648 -0.000000 0.000000 0.000000 0.000000 0.000000 0.000000 0.000000 16.800803 -8.240414 1.109553 50.158657 -0.193094 -27.430704 3.984147 5.568563 0.006399 -4.906295 5.028809 -0.225436 0.147289 -0.080272 0.000000 0.000000 0.000000 0.000000 0.000000 0.000000 0.000000 
4.037884 16.998024 3.576966 1.613014 15.776602 12.834223 -12.462873 4.603211 -1.307869 -3.324835 18.779920 -2.030097 -0.273056 1.521699 27.100353 1.932208 12.645686 19.687602 5.056100 0.000000 -82.707200 7.140193 -1.253102 4.031128 18.160091 2.552998 -24.768013 3.120342 3.060065 -6.572436 -2.977687 -14.077141 -3.526324 -2.591900 -0.000000 -30.671600 6.181097 -3.392597 -2.831819 0.664508 -3.982594 -3.132873 -6.471399 -4.029515 1.736264 8.118296 -8.336229 -7.277590 -4.006774 -0.306072 0.085469 0.000000 0.000000 0.000000 -5.909369 5.951794 2.051492 -44.214448 -10.768398 4.444946 -2.709314 -47.795204 -0.008240 5.792063 0.103413 0.001269 -0.157146 0.107815 -0.000000 0.000000 0.000000 0.000000 0.000000 0.000000 0.000000 16.736938 -8.105585 1.092567 50.440021 -0.188714 -27.564342 4.002319 5.211715 0.006094 -4.981350 4.934088 -0.224541 0.147816 -0.080192 0.000000 0.000000 0.000000 0.000000 0.000000 0.000000 0.000000 
4.080362 17.013883 3.716863 1.161831 15.305649 12.648498 -12.653996 4.515631 -1.245714 -2.703662 18.613259 -2.826055 -0.128685 1.598263 29.100472 2.049047 12.630328 21.572331 5.297801 0.000000 -80.789299 6.963239 -1.354836 4.001323 18.747852 2.701437 -24.170498 3.229599 3.022855 -6.297967 -2.892452 -13.847704 -3.205781 -2.640600 0.000000 -31.151200 6.645254 -3.304947 -2.890598 0.757073 -3.932423 -3.158869 -6.452705 -3.979497 1.706570 8.103238 -8.236639 -7.213357 -4.018733 -0.307956 0.104524 0.000000 0.000000 0.000000 -5.936183 6.113229 1.945859 -45.579167 -10.494813 4.807251 -2.692592 -48.193133 -0.007361 5.391043 0.022991 -0.002723 -0.153762 0.109005 -0.000000 0.000000 0.000000 0.000000 0.000000 0.000000 0.000000 16.701682 -7.948032 1.078693 50.799546 -0.145426 -27.662086 4.018529 4.885203 0.005742 -5.015248 4.805819 -0.220245 0.147996 -0.079951 0.000000 0.000000 0.000000 0.000000 0.000000 0.000000 0.000000 
4.117157 17.029187 3.854398 0.767197 14.812331 12.476513 -12.802944 4.416602 -1.193488 -2.190564 18.427076 -3.689166 -0.011294 1.670394 31.197013 2.171589 12.682571 23.261224 5.539400 -0.000000 -77.726200 6.818647 -1.444050 3.950516 19.292005 2.767708 -23.611231 3.333233 2.971764 -5.918171 -2.797995 -13.511046 -3.021214 -2.628500 -0.000001 -31.429000 7.005726 -3.222129 -2.921120 0.825866 -3.878503 -3.178140 -6.443147 -3.925736 1.675177 8.130168 -8.122269 -7.145187 -4.030662 -0.309827 0.124424 0.000000 0.000000 0.000000 -5.878625 6.243337 1.846696 -46.944824 -10.187240 5.161456 -2.680139 -48.481078 -0.006482 4.961258 -0.033893 -0.004922 -0.150144 0.110028 -0.000000 0.000000 0.000000 0.000000 0.000000 0.000000 0.000000 16.708099 -7.776310 1.069051 51.233129 -0.053528 -27.716391 4.032618 4.584840 0.005359 -5.005135 4.648203 -0.212649 0.147785 -0.079546 0.000000 0.000000 0.000000 0.000000 0.000000 0.000000 0.000000 
4.148349 17.043585 3.989093 0.429524 14.306015 12.312245 -12.910609 4.309038 -1.157173 -1.776643 18.230154 -4.607103 0.078932 1.743869 33.373940 2.292113 12.826542 24.632230 5.782900 0.000000 -73.597301 6.705863 -1.519246 3.881878 19.781024 2.770175 -23.062936 3.427612 2.912338 -5.477210 -2.697819 -13.088694 -2.969333 -2.561500 -0.000001 -31.453600 7.266382 -3.146937 -2.918382 0.871675 -3.823404 -3.190250 -6.443825 -3.870846 1.640521 8.195343 -7.994628 -7.074219 -4.043196 -0.311708 0.144838 0.000000 0.000000 0.000000 -5.752327 6.332064 1.757013 -48.282161 -9.839844 5.505839 -2.670903 -48.673809 -0.005617 4.509842 -0.061494 -0.005529 -0.146261 0.110727 -0.000000 0.000000 0.000000 0.000000 0.000000 0.000000 0.000000 16.755316 -7.594131 1.064910 51.736193 0.097586 -27.747490 4.043906 4.294727 0.004978 -4.947571 4.477325 -0.202653 0.147126 -0.079097 0.000000 0.000000 0.000000 0.000000 0.000000 0.000000 0.000000 
4.174216 17.056951 4.120625 0.144671 13.796709 12.152161 -12.980176 4.195093 -1.139549 -1.451117 18.020432 -5.567493 0.146821 1.823654 35.599597 2.406879 13.104668 25.608509 6.046100 0.000000 -68.815100 6.622231 -1.579192 3.799907 20.209054 2.731162 -22.501275 3.510092 2.851447 -5.027060 -2.596546 -12.612000 -3.035222 -2.451800 0.000000 -31.192000 7.436832 -3.080657 -2.880908 0.896078 -3.768938 -3.195094 -6.457421 -3.816568 1.602708 8.297141 -7.845117 -7.002542 -4.058285 -0.313699 0.165043 0.000000 0.000000 0.000000 -5.577362 6.394823 1.680381 -49.562383 -9.485873 5.854043 -2.666361 -48.765975 -0.004788 4.049507 -0.058064 -0.004742 -0.142297 0.111054 -0.000000 0.000000 0.000000 0.000000 0.000000 0.000000 0.000000 16.850285 -7.391622 1.065294 52.303095 0.279395 -27.680286 4.053713 4.070487 0.004564 -4.849778 4.271644 -0.189656 0.146095 -0.078340 0.000000 0.000000 0.000000 0.000000 0.000000 0.000000 0.000000 
4.194967 17.069220 4.248985 -0.085802 13.292811 12.000058 -13.013559 4.078565 -1.139963 -1.213350 17.792014 -6.570219 0.198701 1.914329 37.854175 2.511915 13.534756 26.119432 6.330300 0.000000 -63.648201 6.567277 -1.623196 3.711053 20.566358 2.668293 -21.921069 3.578531 2.794412 -4.604698 -2.498030 -12.106446 -3.204125 -2.310900 0.000000 -30.651900 7.520896 -3.024786 -2.815545 0.900323 -3.717161 -3.194458 -6.483403 -3.765043 1.560717 8.429200 -7.683206 -6.930502 -4.076308 -0.315843 0.185031 0.000000 0.000000 0.000000 -5.370199 6.413471 1.617448 -50.764395 -9.103943 6.198303 -2.664656 -48.779945 -0.004007 3.587622 -0.021998 -0.002860 -0.138185 0.110815 -0.000000 0.000000 0.000000 0.000000 0.000000 0.000000 0.000000 16.989234 -7.181305 1.071060 52.924757 0.516479 -27.563880 4.060663 3.868261 0.004189 -4.711125 4.067710 -0.175660 0.144625 -0.077535 0.000000 0.000000 0.000000 0.000000 0.000000 0.000000 0.000000 
